<svg xmlns="http://www.w3.org/2000/svg" viewBox="0 0 1200 700">
  <defs>
    <linearGradient id="g" x1="0" x2="1" y1="0" y2="1">
      <stop offset="0" stop-color="#22c55e"/>
      <stop offset="1" stop-color="#10b981"/>
    </linearGradient>
  </defs>
  <rect width="1200" height="700" fill="#0b1220"/>
  <g opacity=".25">
    <circle cx="200" cy="200" r="160" fill="url(#g)"/>
    <circle cx="1000" cy="500" r="190" fill="url(#g)"/>
    <circle cx="700" cy="180" r="120" fill="url(#g)"/>
  </g>
  <g transform="translate(140,120)" fill="#e5e7eb">
    <rect x="0" y="0" width="400" height="260" rx="18" fill="#0f172a" stroke="#1f2937"/>
    <rect x="24" y="24" width="352" height="24" rx="8" fill="#111827"/>
    <rect x="24" y="64" width="312" height="18" rx="9" opacity=".7"/>
    <rect x="24" y="92" width="280" height="18" rx="9" opacity=".5"/>
    <rect x="24" y="120" width="300" height="18" rx="9" opacity=".5"/>
    <rect x="24" y="160" width="220" height="18" rx="9" opacity=".35"/>
    <rect x="24" y="192" width="180" height="18" rx="9" opacity=".35"/>
    <rect x="480" y="0" width="400" height="260" rx="18" fill="#0f172a" stroke="#1f2937"/>
    <rect x="504" y="24" width="352" height="24" rx="8" fill="#111827"/>
    <rect x="504" y="64" width="312" height="18" rx="9" opacity=".7"/>
    <rect x="504" y="92" width="280" height="18" rx="9" opacity=".5"/>
    <rect x="504" y="120" width="300" height="18" rx="9" opacity=".5"/>
    <rect x="504" y="160" width="220" height="18" rx="9" opacity=".35"/>
    <rect x="504" y="192" width="180" height="18" rx="9" opacity=".35"/>
  </g>
  <text x="600" y="580" font-size="42" text-anchor="middle" fill="#e5e7eb" font-family="Arial" font-weight="700">Veluna Education — Online Language Learning</text>
</svg>
